<?xml version="1.0" standalone="no"?>
<!DOCTYPE svg PUBLIC "-//W3C//DTD SVG 20010904//EN"
 "http://www.w3.org/TR/2001/REC-SVG-20010904/DTD/svg10.dtd">
<svg version="1.0" xmlns="http://www.w3.org/2000/svg"
 width="196.000000pt" height="36.000000pt" viewBox="0 0 196.000000 36.000000"
 preserveAspectRatio="xMidYMid meet">

<g transform="translate(0.000000,36.000000) scale(0.100000,-0.100000)"
fill="#000000" stroke="none">
<path d="M100 206 c0 -46 -3 -98 -6 -115 l-6 -31 79 0 c89 0 123 15 123 56 0
15 -10 34 -22 44 -22 17 -22 19 -5 37 23 26 22 70 -2 83 -11 5 -51 10 -90 10
l-71 0 0 -84z m94 38 c20 -8 21 -33 1 -40 -20 -8 -45 13 -38 32 6 15 13 17 37
8z m11 -119 c0 -30 -39 -27 -43 3 -3 20 0 23 20 20 15 -2 23 -10 23 -23z"/>
<path d="M330 175 l0 -115 71 0 70 0 -3 28 c-3 23 -8 27 -40 30 -51 4 -53 32
-3 32 31 0 35 3 35 25 0 23 -4 25 -40 25 -29 0 -40 4 -40 15 0 11 11 15 39 15
38 0 51 11 51 46 0 11 -16 14 -70 14 l-70 0 0 -115z"/>
<path d="M500 175 l0 -115 35 0 c34 0 35 1 35 43 l0 42 36 -42 c27 -33 43 -43
65 -43 l29 0 -29 47 c-30 48 -30 48 -10 69 19 20 25 60 11 80 -15 23 -52 34
-111 34 l-61 0 0 -115z m108 42 c2 -12 -3 -17 -17 -17 -15 0 -21 6 -21 21 0
25 33 22 38 -4z"/>
<path d="M720 221 c0 -37 -3 -89 -6 -115 l-7 -46 38 0 37 0 -6 45 c-10 61 13
61 48 0 22 -37 32 -45 56 -45 17 0 30 2 30 4 0 2 -15 31 -33 63 l-34 59 24 35
c46 66 47 69 14 69 -24 0 -37 -9 -66 -46 l-35 -47 0 47 c0 44 -1 46 -30 46
l-30 0 0 -69z"/>
<path d="M940 175 l0 -115 30 0 30 0 0 115 0 115 -30 0 -30 0 0 -115z"/>
<path d="M1040 175 l0 -115 25 0 c27 0 32 13 37 83 l3 39 43 -61 c31 -45 49
-61 66 -61 29 0 36 28 36 146 l0 84 -30 0 c-29 0 -30 -1 -30 -50 0 -27 -4 -50
-9 -50 -5 0 -23 23 -41 50 -28 44 -36 50 -66 50 l-34 0 0 -115z"/>
<path d="M1290 175 l0 -115 45 0 c87 0 143 40 152 108 10 76 -43 122 -139 122
l-58 0 0 -115z m124 39 c33 -32 7 -94 -39 -94 -25 0 -35 22 -35 78 0 29 3 32
29 32 16 0 37 -7 45 -16z"/>
<path d="M1520 175 l0 -115 70 0 70 0 0 30 c0 28 -2 30 -40 30 -29 0 -40 4
-40 15 0 11 11 15 40 15 36 0 40 3 40 25 0 23 -4 25 -40 25 -29 0 -40 4 -40
15 0 11 11 15 40 15 38 0 40 2 40 30 l0 30 -70 0 -70 0 0 -115z"/>
<path d="M1674 273 c2 -10 14 -62 26 -115 l22 -98 49 0 c27 0 49 1 49 3 0 1
14 49 30 107 17 58 30 108 30 112 0 5 -13 8 -30 8 -31 0 -29 4 -61 -124 -14
-55 -20 -49 -39 34 -20 91 -19 90 -51 90 -24 0 -29 -4 -25 -17z"/>
</g>
</svg>
